<mxfile host="app.diagrams.net" modified="2022-07-17T19:21:33.280Z" agent="5.0 (Macintosh; Intel Mac OS X 10_15_7) AppleWebKit/537.36 (KHTML, like Gecko) Chrome/103.0.0.0 Safari/537.36" etag="d0MVXVhOvYwDyqTNYHZW" version="20.0.3" type="github">
  <diagram id="XnihjNDR5ECjtKAGWqoD" name="Page-1">
    <mxGraphModel dx="1685" dy="724" grid="1" gridSize="10" guides="1" tooltips="1" connect="1" arrows="1" fold="1" page="1" pageScale="1" pageWidth="850" pageHeight="1100" math="0" shadow="0">
      <root>
        <mxCell id="0" />
        <mxCell id="1" parent="0" />
        <mxCell id="FC8SatOdNbRud1lcI9og-1" value="" style="ellipse;whiteSpace=wrap;html=1;rotation=-240;opacity=50;fillColor=#f8cecc;strokeColor=#b85450;" vertex="1" parent="1">
          <mxGeometry x="285" y="179" width="220" height="80" as="geometry" />
        </mxCell>
        <mxCell id="FC8SatOdNbRud1lcI9og-3" value="" style="ellipse;whiteSpace=wrap;html=1;opacity=50;fillColor=#d5e8d4;strokeColor=#82b366;" vertex="1" parent="1">
          <mxGeometry x="240" y="100" width="220" height="80" as="geometry" />
        </mxCell>
        <mxCell id="FC8SatOdNbRud1lcI9og-4" value="" style="ellipse;whiteSpace=wrap;html=1;rotation=60;opacity=50;fillColor=#dae8fc;strokeColor=#6c8ebf;" vertex="1" parent="1">
          <mxGeometry x="194" y="180" width="220" height="80" as="geometry" />
        </mxCell>
        <mxCell id="FC8SatOdNbRud1lcI9og-26" value="" style="ellipse;whiteSpace=wrap;html=1;aspect=fixed;opacity=50;" vertex="1" parent="1">
          <mxGeometry x="340" y="280" width="20" height="20" as="geometry" />
        </mxCell>
        <mxCell id="FC8SatOdNbRud1lcI9og-27" value="" style="ellipse;whiteSpace=wrap;html=1;aspect=fixed;opacity=50;" vertex="1" parent="1">
          <mxGeometry x="250" y="130" width="20" height="20" as="geometry" />
        </mxCell>
        <mxCell id="FC8SatOdNbRud1lcI9og-28" value="" style="ellipse;whiteSpace=wrap;html=1;aspect=fixed;opacity=50;" vertex="1" parent="1">
          <mxGeometry x="425" y="130" width="20" height="20" as="geometry" />
        </mxCell>
        <mxCell id="FC8SatOdNbRud1lcI9og-39" value="" style="group;rotation=90;direction=south;" vertex="1" connectable="0" parent="1">
          <mxGeometry x="-30.00416349923539" y="489.9964532547681" width="514.5083269984707" height="423.2877102444673" as="geometry" />
        </mxCell>
        <mxCell id="FC8SatOdNbRud1lcI9og-40" value="" style="triangle;whiteSpace=wrap;html=1;fontFamily=Helvetica;fontSize=12;strokeColor=#b85450;fillColor=#f8cecc;rotation=135;opacity=50;" vertex="1" parent="FC8SatOdNbRud1lcI9og-39">
          <mxGeometry x="88" y="10" width="157.46" height="313.88" as="geometry" />
        </mxCell>
        <mxCell id="FC8SatOdNbRud1lcI9og-41" value="" style="ellipse;whiteSpace=wrap;html=1;aspect=fixed;opacity=50;rotation=90;" vertex="1" parent="FC8SatOdNbRud1lcI9og-39">
          <mxGeometry x="116" y="31" width="20" height="20" as="geometry" />
        </mxCell>
        <mxCell id="FC8SatOdNbRud1lcI9og-42" value="" style="ellipse;whiteSpace=wrap;html=1;aspect=fixed;opacity=50;rotation=90;" vertex="1" parent="FC8SatOdNbRud1lcI9og-39">
          <mxGeometry x="285" y="198" width="20" height="20" as="geometry" />
        </mxCell>
        <mxCell id="FC8SatOdNbRud1lcI9og-43" value="" style="ellipse;whiteSpace=wrap;html=1;aspect=fixed;opacity=50;rotation=90;" vertex="1" parent="FC8SatOdNbRud1lcI9og-39">
          <mxGeometry x="116" y="198" width="20" height="20" as="geometry" />
        </mxCell>
        <mxCell id="FC8SatOdNbRud1lcI9og-85" value="" style="triangle;whiteSpace=wrap;html=1;fontFamily=Helvetica;fontSize=12;strokeColor=#6c8ebf;fillColor=#dae8fc;rotation=45;opacity=50;direction=west;" vertex="1" parent="FC8SatOdNbRud1lcI9og-39">
          <mxGeometry x="87.99771024446733" y="-79.99228975553274" width="157.46" height="313.88" as="geometry" />
        </mxCell>
        <mxCell id="FC8SatOdNbRud1lcI9og-29" value="" style="triangle;whiteSpace=wrap;html=1;fontFamily=Helvetica;fontSize=12;strokeColor=#d6b656;fillColor=#fff2cc;rotation=45;opacity=50;" vertex="1" parent="FC8SatOdNbRud1lcI9og-39">
          <mxGeometry x="172.9138551222337" y="10.003855122233745" width="157.46" height="313.88" as="geometry" />
        </mxCell>
        <mxCell id="FC8SatOdNbRud1lcI9og-30" value="" style="ellipse;whiteSpace=wrap;html=1;aspect=fixed;opacity=50;" vertex="1" parent="FC8SatOdNbRud1lcI9og-39">
          <mxGeometry x="115.83385512223367" y="197.14385512223373" width="20" height="20" as="geometry" />
        </mxCell>
        <mxCell id="FC8SatOdNbRud1lcI9og-31" value="" style="ellipse;whiteSpace=wrap;html=1;aspect=fixed;opacity=50;" vertex="1" parent="FC8SatOdNbRud1lcI9og-39">
          <mxGeometry x="282.8338551222337" y="28.14385512223373" width="20" height="20" as="geometry" />
        </mxCell>
        <mxCell id="FC8SatOdNbRud1lcI9og-32" value="" style="ellipse;whiteSpace=wrap;html=1;aspect=fixed;opacity=50;" vertex="1" parent="FC8SatOdNbRud1lcI9og-39">
          <mxGeometry x="282.8338551222337" y="197.14385512223373" width="20" height="20" as="geometry" />
        </mxCell>
        <mxCell id="FC8SatOdNbRud1lcI9og-49" value="" style="group;rotation=90;" vertex="1" connectable="0" parent="FC8SatOdNbRud1lcI9og-39">
          <mxGeometry x="86.99999999999994" y="-85" width="333.28771024446735" height="333.28771024446735" as="geometry" />
        </mxCell>
        <mxCell id="FC8SatOdNbRud1lcI9og-51" value="" style="ellipse;whiteSpace=wrap;html=1;aspect=fixed;opacity=50;rotation=-90;" vertex="1" parent="FC8SatOdNbRud1lcI9og-49">
          <mxGeometry x="197" y="282" width="20" height="20" as="geometry" />
        </mxCell>
        <mxCell id="FC8SatOdNbRud1lcI9og-52" value="" style="ellipse;whiteSpace=wrap;html=1;aspect=fixed;opacity=50;rotation=-90;" vertex="1" parent="FC8SatOdNbRud1lcI9og-49">
          <mxGeometry x="28" y="115" width="20" height="20" as="geometry" />
        </mxCell>
        <mxCell id="FC8SatOdNbRud1lcI9og-53" value="" style="ellipse;whiteSpace=wrap;html=1;aspect=fixed;opacity=50;rotation=-90;" vertex="1" parent="FC8SatOdNbRud1lcI9og-49">
          <mxGeometry x="197" y="115" width="20" height="20" as="geometry" />
        </mxCell>
        <mxCell id="FC8SatOdNbRud1lcI9og-50" value="" style="triangle;whiteSpace=wrap;html=1;fontFamily=Helvetica;fontSize=12;strokeColor=#82b366;fillColor=#d5e8d4;rotation=-45;opacity=50;" vertex="1" parent="FC8SatOdNbRud1lcI9og-39">
          <mxGeometry x="171.90999999999994" y="-80.30000000000007" width="157.46" height="313.88" as="geometry" />
        </mxCell>
        <mxCell id="FC8SatOdNbRud1lcI9og-86" value="" style="ellipse;whiteSpace=wrap;html=1;rotation=-180;opacity=50;fillColor=#f8cecc;strokeColor=#b85450;" vertex="1" parent="1">
          <mxGeometry x="484.5" y="310" width="220" height="80" as="geometry" />
        </mxCell>
        <mxCell id="FC8SatOdNbRud1lcI9og-88" value="" style="ellipse;whiteSpace=wrap;html=1;aspect=fixed;opacity=50;" vertex="1" parent="1">
          <mxGeometry x="497.5" y="340" width="20" height="20" as="geometry" />
        </mxCell>
        <mxCell id="FC8SatOdNbRud1lcI9og-89" value="" style="ellipse;whiteSpace=wrap;html=1;aspect=fixed;opacity=50;" vertex="1" parent="1">
          <mxGeometry x="674.5" y="340" width="20" height="20" as="geometry" />
        </mxCell>
        <mxCell id="FC8SatOdNbRud1lcI9og-125" value="" style="group" vertex="1" connectable="0" parent="1">
          <mxGeometry x="404.67052812376295" y="499.995528123763" width="259.25894375247407" height="260.50894375247407" as="geometry" />
        </mxCell>
        <mxCell id="FC8SatOdNbRud1lcI9og-117" value="" style="ellipse;whiteSpace=wrap;html=1;rotation=0;opacity=50;fillColor=#f8cecc;strokeColor=#b85450;" vertex="1" parent="FC8SatOdNbRud1lcI9og-125">
          <mxGeometry x="15.328455724859452" y="2.684471876237012" width="220" height="80" as="geometry" />
        </mxCell>
        <mxCell id="FC8SatOdNbRud1lcI9og-118" value="" style="ellipse;whiteSpace=wrap;html=1;opacity=50;fillColor=#d5e8d4;strokeColor=#82b366;rotation=-90;" vertex="1" parent="FC8SatOdNbRud1lcI9og-125">
          <mxGeometry x="-64.67154427514055" y="82.68447187623701" width="220" height="80" as="geometry" />
        </mxCell>
        <mxCell id="FC8SatOdNbRud1lcI9og-119" value="" style="ellipse;whiteSpace=wrap;html=1;rotation=-45;opacity=50;fillColor=#dae8fc;strokeColor=#6c8ebf;" vertex="1" parent="FC8SatOdNbRud1lcI9og-125">
          <mxGeometry x="-12.71052812376297" y="87.254471876237" width="279.93" height="80" as="geometry" />
        </mxCell>
        <mxCell id="FC8SatOdNbRud1lcI9og-120" value="" style="ellipse;whiteSpace=wrap;html=1;aspect=fixed;opacity=50;rotation=-90;" vertex="1" parent="FC8SatOdNbRud1lcI9og-125">
          <mxGeometry x="201.32845572485945" y="32.68447187623701" width="20" height="20" as="geometry" />
        </mxCell>
        <mxCell id="FC8SatOdNbRud1lcI9og-121" value="" style="ellipse;whiteSpace=wrap;html=1;aspect=fixed;opacity=50;rotation=-90;" vertex="1" parent="FC8SatOdNbRud1lcI9og-125">
          <mxGeometry x="35.32845572485945" y="202.684471876237" width="20" height="20" as="geometry" />
        </mxCell>
        <mxCell id="FC8SatOdNbRud1lcI9og-122" value="" style="ellipse;whiteSpace=wrap;html=1;aspect=fixed;opacity=50;rotation=-90;" vertex="1" parent="FC8SatOdNbRud1lcI9og-125">
          <mxGeometry x="33.32845572485945" y="32.68447187623701" width="20" height="20" as="geometry" />
        </mxCell>
        <mxCell id="FC8SatOdNbRud1lcI9og-133" value="" style="group;rotation=90;" vertex="1" connectable="0" parent="FC8SatOdNbRud1lcI9og-125">
          <mxGeometry x="-5.684341886080802e-14" y="5.684341886080802e-14" width="259.2589437524741" height="260.508943752474" as="geometry" />
        </mxCell>
        <mxCell id="FC8SatOdNbRud1lcI9og-134" value="" style="ellipse;whiteSpace=wrap;html=1;rotation=90;opacity=50;fillColor=#f8cecc;strokeColor=#b85450;" vertex="1" parent="FC8SatOdNbRud1lcI9og-133">
          <mxGeometry x="102" y="85" width="220" height="80" as="geometry" />
        </mxCell>
        <mxCell id="FC8SatOdNbRud1lcI9og-135" value="" style="ellipse;whiteSpace=wrap;html=1;opacity=50;fillColor=#d5e8d4;strokeColor=#82b366;rotation=0;" vertex="1" parent="FC8SatOdNbRud1lcI9og-133">
          <mxGeometry x="22" y="6" width="220" height="80" as="geometry" />
        </mxCell>
        <mxCell id="FC8SatOdNbRud1lcI9og-136" value="" style="ellipse;whiteSpace=wrap;html=1;rotation=45;opacity=50;fillColor=#dae8fc;strokeColor=#6c8ebf;" vertex="1" parent="FC8SatOdNbRud1lcI9og-133">
          <mxGeometry x="-13" y="87" width="279.93" height="80" as="geometry" />
        </mxCell>
        <mxCell id="FC8SatOdNbRud1lcI9og-137" value="" style="ellipse;whiteSpace=wrap;html=1;aspect=fixed;opacity=50;rotation=0;" vertex="1" parent="FC8SatOdNbRud1lcI9og-133">
          <mxGeometry x="202" y="202" width="20" height="20" as="geometry" />
        </mxCell>
        <mxCell id="FC8SatOdNbRud1lcI9og-138" value="" style="ellipse;whiteSpace=wrap;html=1;aspect=fixed;opacity=50;rotation=0;" vertex="1" parent="FC8SatOdNbRud1lcI9og-133">
          <mxGeometry x="32" y="36" width="20" height="20" as="geometry" />
        </mxCell>
        <mxCell id="FC8SatOdNbRud1lcI9og-139" value="" style="ellipse;whiteSpace=wrap;html=1;aspect=fixed;opacity=50;rotation=0;" vertex="1" parent="FC8SatOdNbRud1lcI9og-133">
          <mxGeometry x="202" y="33" width="20" height="20" as="geometry" />
        </mxCell>
        <mxCell id="FC8SatOdNbRud1lcI9og-140" value="" style="group;rotation=-90;" vertex="1" connectable="0" parent="FC8SatOdNbRud1lcI9og-133">
          <mxGeometry x="4.750000000000057" y="6" width="254.50894375247407" height="254.508943752474" as="geometry" />
        </mxCell>
        <mxCell id="FC8SatOdNbRud1lcI9og-141" value="" style="ellipse;whiteSpace=wrap;html=1;rotation=-90;opacity=50;fillColor=#f8cecc;strokeColor=#b85450;" vertex="1" parent="FC8SatOdNbRud1lcI9og-140">
          <mxGeometry x="-67" y="89" width="220" height="80" as="geometry" />
        </mxCell>
        <mxCell id="FC8SatOdNbRud1lcI9og-142" value="" style="ellipse;whiteSpace=wrap;html=1;opacity=50;fillColor=#d5e8d4;strokeColor=#82b366;rotation=-180;" vertex="1" parent="FC8SatOdNbRud1lcI9og-140">
          <mxGeometry x="13" y="169" width="220" height="80" as="geometry" />
        </mxCell>
        <mxCell id="FC8SatOdNbRud1lcI9og-143" value="" style="ellipse;whiteSpace=wrap;html=1;rotation=-135;opacity=50;fillColor=#dae8fc;strokeColor=#6c8ebf;" vertex="1" parent="FC8SatOdNbRud1lcI9og-140">
          <mxGeometry x="-13" y="87" width="279.93" height="80" as="geometry" />
        </mxCell>
        <mxCell id="FC8SatOdNbRud1lcI9og-144" value="" style="ellipse;whiteSpace=wrap;html=1;aspect=fixed;opacity=50;rotation=-180;" vertex="1" parent="FC8SatOdNbRud1lcI9og-140">
          <mxGeometry x="33" y="33" width="20" height="20" as="geometry" />
        </mxCell>
        <mxCell id="FC8SatOdNbRud1lcI9og-145" value="" style="ellipse;whiteSpace=wrap;html=1;aspect=fixed;opacity=50;rotation=-180;" vertex="1" parent="FC8SatOdNbRud1lcI9og-140">
          <mxGeometry x="203" y="199" width="20" height="20" as="geometry" />
        </mxCell>
        <mxCell id="FC8SatOdNbRud1lcI9og-146" value="" style="ellipse;whiteSpace=wrap;html=1;aspect=fixed;opacity=50;rotation=-180;" vertex="1" parent="FC8SatOdNbRud1lcI9og-140">
          <mxGeometry x="33" y="201" width="20" height="20" as="geometry" />
        </mxCell>
        <mxCell id="FC8SatOdNbRud1lcI9og-147" value="" style="group;direction=south;rotation=-180;" vertex="1" connectable="0" parent="FC8SatOdNbRud1lcI9og-140">
          <mxGeometry x="-4.250308377001659" y="-5.509691622998332" width="254.508943752474" height="254.50894375247407" as="geometry" />
        </mxCell>
        <mxCell id="FC8SatOdNbRud1lcI9og-148" value="" style="ellipse;whiteSpace=wrap;html=1;rotation=-180;opacity=50;fillColor=#f8cecc;strokeColor=#b85450;" vertex="1" parent="FC8SatOdNbRud1lcI9og-147">
          <mxGeometry x="19" y="172" width="220" height="80" as="geometry" />
        </mxCell>
        <mxCell id="FC8SatOdNbRud1lcI9og-149" value="" style="ellipse;whiteSpace=wrap;html=1;opacity=50;fillColor=#d5e8d4;strokeColor=#82b366;rotation=-270;" vertex="1" parent="FC8SatOdNbRud1lcI9og-147">
          <mxGeometry x="99" y="92" width="220" height="80" as="geometry" />
        </mxCell>
        <mxCell id="FC8SatOdNbRud1lcI9og-150" value="" style="ellipse;whiteSpace=wrap;html=1;rotation=-225;opacity=50;fillColor=#dae8fc;strokeColor=#6c8ebf;" vertex="1" parent="FC8SatOdNbRud1lcI9og-147">
          <mxGeometry x="-13" y="87" width="279.93" height="80" as="geometry" />
        </mxCell>
        <mxCell id="FC8SatOdNbRud1lcI9og-151" value="" style="ellipse;whiteSpace=wrap;html=1;aspect=fixed;opacity=50;rotation=-270;" vertex="1" parent="FC8SatOdNbRud1lcI9og-147">
          <mxGeometry x="33" y="202" width="20" height="20" as="geometry" />
        </mxCell>
        <mxCell id="FC8SatOdNbRud1lcI9og-152" value="" style="ellipse;whiteSpace=wrap;html=1;aspect=fixed;opacity=50;rotation=-270;" vertex="1" parent="FC8SatOdNbRud1lcI9og-147">
          <mxGeometry x="199" y="32" width="20" height="20" as="geometry" />
        </mxCell>
        <mxCell id="FC8SatOdNbRud1lcI9og-153" value="" style="ellipse;whiteSpace=wrap;html=1;aspect=fixed;opacity=50;rotation=-270;" vertex="1" parent="FC8SatOdNbRud1lcI9og-147">
          <mxGeometry x="201" y="202" width="20" height="20" as="geometry" />
        </mxCell>
      </root>
    </mxGraphModel>
  </diagram>
</mxfile>
